<?xml version="1.0" encoding="UTF-8" standalone="no"?>
<svg
   xmlns:dc="http://purl.org/dc/elements/1.1/"
   xmlns:cc="http://creativecommons.org/ns#"
   xmlns:rdf="http://www.w3.org/1999/02/22-rdf-syntax-ns#"
   xmlns:svg="http://www.w3.org/2000/svg"
   xmlns="http://www.w3.org/2000/svg"
   xmlns:sodipodi="http://sodipodi.sourceforge.net/DTD/sodipodi-0.dtd"
   xmlns:inkscape="http://www.inkscape.org/namespaces/inkscape"
   version="1.0"
   width="3508.000000pt"
   height="2480.000000pt"
   viewBox="0 0 3508.000000 2480.000000"
   preserveAspectRatio="xMidYMid meet"
   id="svg60"
   sodipodi:docname="EL-sense лого финал.svg"
   inkscape:version="0.92.4 (5da689c313, 2019-01-14)">
  <defs
     id="defs64" />
  <sodipodi:namedview
     pagecolor="#ffffff"
     bordercolor="#666666"
     borderopacity="1"
     objecttolerance="10"
     gridtolerance="10"
     guidetolerance="10"
     inkscape:pageopacity="0"
     inkscape:pageshadow="2"
     inkscape:window-width="1920"
     inkscape:window-height="1017"
     id="namedview62"
     showgrid="false"
     inkscape:zoom="8.2064516"
     inkscape:cx="1297.7533"
     inkscape:cy="773.36083"
     inkscape:window-x="-8"
     inkscape:window-y="-8"
     inkscape:window-maximized="1"
     inkscape:current-layer="svg60" />
  <metadata
     id="metadata38">
Created by potrace 1.15, written by Peter Selinger 2001-2017
<rdf:RDF>
  <cc:Work
     rdf:about="">
    <dc:format>image/svg+xml</dc:format>
    <dc:type
       rdf:resource="http://purl.org/dc/dcmitype/StillImage" />
  </cc:Work>
</rdf:RDF>
</metadata>
  <g
     transform="matrix(0.00134757,0,0,-0.00134757,930.29244,1935.2993)"
     id="g58"
     style="fill:#000000;stroke:none">
    <path
       d="m 17090,19274 c -25,-2 -103,-8 -175,-14 -948,-76 -1905,-367 -2749,-834 -944,-524 -1757,-1267 -2368,-2166 -687,-1011 -1089,-2187 -1169,-3423 -15,-231 -6,-878 15,-1077 15,-152 43,-372 52,-427 l 6,-33 h -636 -636 v -140 -140 h 660 c 520,0 661,-3 664,-12 2,-7 18,-76 36,-153 211,-929 628,-1826 1204,-2590 391,-519 878,-1005 1396,-1390 960,-715 2090,-1166 3275,-1309 269,-33 350,-38 717,-43 475,-7 731,8 1138,68 1106,161 2185,609 3090,1284 435,325 890,760 1241,1190 236,288 497,677 686,1020 302,549 540,1176 677,1780 l 33,150 697,3 696,2 v 140 140 h -671 -671 l 6,33 c 9,54 36,269 52,424 21,202 30,848 15,1080 -51,778 -220,1507 -516,2218 -591,1418 -1669,2622 -3021,3371 -748,414 -1583,690 -2424,799 -313,41 -415,47 -845,50 -236,1 -450,1 -475,-1 z m 995,-289 c 514,-49 989,-145 1451,-296 1206,-392 2275,-1122 3079,-2104 763,-930 1264,-2070 1429,-3250 50,-361 60,-512 60,-935 0,-302 -4,-438 -17,-575 -17,-168 -50,-435 -63,-497 l -6,-28 h -6518 -6518 l -11,64 c -54,308 -75,596 -76,1026 0,460 18,694 85,1102 260,1570 1094,3006 2335,4023 1070,877 2389,1395 3780,1485 206,13 789,4 990,-15 z m 5859,-8067 c -184,-782 -486,-1486 -922,-2148 -899,-1369 -2284,-2361 -3865,-2770 -771,-199 -1599,-258 -2392,-169 -1598,178 -3079,936 -4159,2129 -767,846 -1286,1838 -1550,2958 l -24,102 h 6468 6468 z"
       id="path40"
       inkscape:connector-curvature="0" />
    <path
       d="m 14355,17228 c -2,-7 -56,-308 -120,-668 -63,-360 -118,-665 -120,-677 l -5,-23 h 1879 1879 l 6,28 c 16,75 236,1322 236,1336 0,15 -153,16 -1875,16 -1492,0 -1876,-3 -1880,-12 z"
       id="path42"
       inkscape:connector-curvature="0" />
    <path
       d="m 18855,17228 c -7,-21 -965,-5413 -965,-5431 0,-16 134,-17 1877,-15 l 1877,3 121,680 121,680 -1184,3 -1184,2 6,28 c 3,15 166,927 361,2027 195,1100 357,2008 359,2018 4,16 -34,17 -690,17 -547,0 -696,-3 -699,-12 z"
       id="path44"
       inkscape:connector-curvature="0" />
    <path
       d="m 14005,15268 c -12,-54 -615,-3457 -615,-3472 0,-15 137,-16 1877,-14 l 1877,3 121,680 121,680 -1184,3 -1184,2 5,23 c 3,12 33,183 68,379 l 63,358 1185,2 1184,3 118,660 c 65,363 120,672 123,688 l 6,27 h -1880 -1880 z"
       id="path46"
       inkscape:connector-curvature="0" />
    <path
       d="m 13597,10689 c -285,-30 -525,-179 -632,-391 -44,-89 -58,-159 -53,-276 2,-79 8,-107 29,-152 67,-140 242,-247 499,-306 329,-75 416,-106 507,-180 191,-156 116,-472 -150,-638 -170,-106 -416,-143 -606,-92 -179,49 -325,191 -381,374 -9,29 -20,53 -24,54 -4,0 -45,-14 -91,-32 -95,-37 -95,-37 -65,-124 36,-104 82,-178 163,-259 64,-62 97,-86 170,-121 151,-73 326,-99 515,-77 417,49 720,305 772,655 22,150 -14,261 -119,366 -101,100 -222,154 -475,211 -303,68 -457,144 -524,257 -24,41 -27,57 -27,132 0,76 4,93 33,152 86,174 288,279 542,281 251,2 418,-92 516,-289 21,-43 39,-80 40,-82 0,-1 40,19 87,45 99,54 97,45 39,163 -26,53 -57,96 -107,145 -111,111 -235,165 -426,185 -111,11 -119,11 -232,-1 z"
       id="path48"
       inkscape:connector-curvature="0" />
    <path
       d="m 19817,10689 c -285,-30 -525,-179 -632,-391 -44,-89 -58,-159 -53,-276 2,-79 8,-107 29,-152 67,-140 242,-247 499,-306 329,-75 416,-106 507,-180 191,-156 116,-472 -150,-638 -170,-106 -416,-143 -606,-92 -179,49 -325,191 -381,374 -9,29 -20,53 -24,54 -4,0 -45,-14 -91,-32 -95,-37 -95,-37 -65,-124 36,-104 82,-178 163,-259 64,-62 97,-86 170,-121 151,-73 326,-99 515,-77 417,49 720,305 772,655 22,150 -14,261 -119,366 -101,100 -222,154 -475,211 -303,68 -457,144 -524,257 -24,41 -27,57 -27,132 0,76 4,93 33,152 86,174 288,279 542,281 251,2 418,-92 516,-289 21,-43 39,-80 40,-82 0,-1 40,19 87,45 99,54 97,45 39,163 -26,53 -57,96 -107,145 -111,111 -235,165 -426,185 -111,11 -119,11 -232,-1 z"
       id="path50"
       inkscape:connector-curvature="0" />
    <path
       d="m 15095,10638 c -7,-22 -375,-2102 -375,-2120 0,-17 37,-18 644,-18 605,0 645,1 650,18 6,20 26,132 26,144 0,4 -248,8 -551,8 -519,0 -550,1 -545,18 2,9 37,203 77,430 l 73,412 h 502 503 l 11,58 c 6,31 13,69 16,85 l 6,27 h -501 c -461,0 -501,1 -501,17 0,9 29,180 65,379 36,200 65,368 65,373 0,8 171,11 549,11 h 548 l 12,69 c 6,39 11,77 11,85 0,14 -67,16 -640,16 -504,0 -642,-3 -645,-12 z"
       id="path52"
       inkscape:connector-curvature="0" />
    <path
       d="m 16995,10638 c -7,-22 -375,-2102 -375,-2120 0,-16 11,-18 93,-18 h 92 l 165,929 c 91,512 168,927 171,923 3,-4 18,-38 33,-77 14,-38 203,-452 419,-920 l 393,-850 h 104 104 l 187,1050 c 103,578 188,1060 188,1073 1,21 -2,22 -92,22 h -92 l -165,-925 c -90,-508 -166,-922 -168,-920 -3,2 -19,39 -36,82 -17,43 -207,457 -421,921 l -389,842 h -103 c -74,0 -105,-4 -108,-12 z"
       id="path54"
       inkscape:connector-curvature="0" />
    <path
       d="m 21325,10638 c -6,-18 -375,-2100 -375,-2116 0,-10 133,-12 647,-10 l 647,3 7,35 c 4,19 10,54 14,77 l 6,43 h -551 c -520,0 -551,1 -546,18 2,9 37,203 77,430 l 73,412 h 502 503 l 11,58 c 6,31 13,69 16,85 l 6,27 h -501 c -461,0 -501,1 -501,17 0,9 29,180 65,379 36,200 65,368 65,373 0,8 171,11 549,11 h 548 l 12,69 c 6,39 11,77 11,85 0,14 -67,16 -640,16 -504,0 -642,-3 -645,-12 z"
       id="path56"
       inkscape:connector-curvature="0" />
  </g>
</svg>
