<?xml version="1.0" encoding="UTF-8" standalone="no"?>
<!-- Created with Inkscape (http://www.inkscape.org/) -->

<svg
   xmlns:dc="http://purl.org/dc/elements/1.1/"
   xmlns:cc="http://creativecommons.org/ns#"
   xmlns:rdf="http://www.w3.org/1999/02/22-rdf-syntax-ns#"
   xmlns:svg="http://www.w3.org/2000/svg"
   xmlns="http://www.w3.org/2000/svg"
   xmlns:sodipodi="http://sodipodi.sourceforge.net/DTD/sodipodi-0.dtd"
   xmlns:inkscape="http://www.inkscape.org/namespaces/inkscape"
   version="1.1"
   id="svg38"
   width="3508"
   height="2480"
   viewBox="0 0 3508 2480"
   sodipodi:docname="EL-sense-лого.svg"
   inkscape:version="0.92.4 (5da689c313, 2019-01-14)">
  <metadata
     id="metadata44">
    <rdf:RDF>
      <cc:Work
         rdf:about="">
        <dc:format>image/svg+xml</dc:format>
        <dc:type
           rdf:resource="http://purl.org/dc/dcmitype/StillImage" />
        <dc:title></dc:title>
      </cc:Work>
    </rdf:RDF>
  </metadata>
  <defs
     id="defs42" />
  <sodipodi:namedview
     pagecolor="#ffffff"
     bordercolor="#666666"
     borderopacity="1"
     objecttolerance="10"
     gridtolerance="10"
     guidetolerance="10"
     inkscape:pageopacity="0"
     inkscape:pageshadow="2"
     inkscape:window-width="1920"
     inkscape:window-height="1017"
     id="namedview40"
     showgrid="false"
     inkscape:zoom="0.11449163"
     inkscape:cx="3159.5034"
     inkscape:cy="1458.7137"
     inkscape:window-x="-8"
     inkscape:window-y="-8"
     inkscape:window-maximized="1"
     inkscape:current-layer="svg38" />
  <path
     style="fill:#ffff"
     d="m 1813.5084,1926.3751 c -157.3289,-7.8019 -301.7952,-65.6951 -420.9103,-168.675 -14.3165,-12.3772 -45.7609,-43.3858 -59.5315,-58.7064 -80.1627,-89.1861 -136.0597,-198.2302 -161.0872,-314.25 l -1.6718,-7.75 h -66.3997 -66.3996 v -14 -14 h 64.0674 c 60.5586,0 64.0375,-0.096 63.52,-1.75 -0.9162,-2.9282 -4.4047,-31.6426 -6.2264,-51.25 -1.2514,-13.4684 -1.7312,-28.6993 -1.7641,-56 -0.046,-37.8694 0.623,-50.38 4.4595,-83.4271 14.8596,-128.0002 67.919,-252.54476 150.4187,-353.073 39.391,-47.99913 88.08,-93.12918 138.525,-128.3996 79.232,-55.39785 170.316,-93.97331 263.4268,-111.5652 46.9501,-8.87053 80.2695,-11.93375 130.0732,-11.95828 44.9483,-0.0221 70.7695,1.9373 111.0457,8.42665 129.8607,20.92334 250.7323,78.87553 349.4543,167.54674 14.9788,13.45381 47.1311,46.06002 59.1224,59.95699 125.2679,145.17574 184.4307,331.4457 165.3184,520.4928 -1.6555,16.3754 -4.2604,36.6221 -5.0499,39.25 -0.497,1.6546 3.1582,1.75 67.0417,1.75 h 67.5674 v 14 14 h -69.8996 -69.8996 l -1.6718,7.75 c -24.8686,115.283 -80.4536,224.1053 -159.7488,312.75 -14.3816,16.0774 -46.623,47.9689 -61.2875,60.6224 -98.3624,84.874 -215.5299,139.8071 -340.947,159.8504 -37.7351,6.0306 -61.7092,8.0138 -102.0457,8.4413 -17.6,0.1866 -35.375,0.1719 -39.5,-0.033 z m 83.1743,-27.9379 c 200.3885,-15.4716 381.719,-121.0966 496.0402,-288.9435 38.4618,-56.4697 69.478,-123.0464 88.2828,-189.5 4.1294,-14.5927 10.5027,-40.1446 10.5027,-42.1076 0,-0.5223 -268.3305,-0.8924 -647,-0.8924 -355.85,0 -647,0.2575 -647,0.5722 0,1.8172 5.7382,25.2703 9.5925,39.2068 18.1263,65.5399 47.7603,130.2826 85.9238,187.721 107.7212,162.127 281.5471,269.2185 473.0566,291.443 43.4504,5.0424 86.903,5.8743 130.6014,2.5005 z m -486.1743,-267.8718 c -15.9058,-3.341 -25.8407,-8.5635 -36.4245,-19.1472 -7.7078,-7.7079 -12.5462,-15.0437 -15.4944,-23.4923 -3.4981,-10.0243 -3.6503,-9.6723 5.8431,-13.5108 4.6334,-1.8734 8.5098,-3.2971 8.6144,-3.1638 0.1045,0.1333 1.1789,3.2531 2.3874,6.9328 4.122,12.5504 15.0109,25.7367 25.6567,31.0697 10.941,5.4809 14.8231,6.2399 31.9173,6.2399 13.9768,0 16.9484,-0.2961 23.5,-2.3419 18.6281,-5.8166 32.7254,-17.0921 39.7418,-31.787 3.5282,-7.3894 3.7582,-8.4525 3.7582,-17.3711 0,-8.6626 -0.2616,-9.9724 -2.9681,-14.8588 -6.8634,-12.3914 -19.7336,-18.8739 -49.9455,-25.1568 -33.393,-6.9444 -52.9079,-18.493 -59.2442,-35.0598 -2.7128,-7.0931 -2.4403,-22.5988 0.5581,-31.7522 6.961,-21.2499 25.7177,-36.9165 53.0997,-44.3518 7.2974,-1.9815 10.8345,-2.3044 25,-2.2819 18.4263,0.029 26.4272,1.6216 39,7.7623 9.4849,4.6326 19.5069,14.9639 24.8272,25.5936 2.295,4.5854 4.1665,8.8474 4.1588,9.4712 -0.01,0.6238 -3.546,3.0332 -7.8628,5.3542 l -7.8487,4.22 -3.7389,-7.5652 c -4.8907,-9.8957 -13.9323,-19.2286 -22.5992,-23.3274 -10.1768,-4.8128 -19.2495,-6.3901 -33.3191,-5.7925 -20.148,0.8557 -34.0029,6.6895 -45.2967,19.0728 -6.7016,7.348 -9.5549,14.6235 -9.6759,24.6723 -0.079,6.5319 0.2933,8.1999 2.8825,12.9225 6.8864,12.5608 20.5194,19.009 60.2563,28.5002 25.3993,6.0666 41.365,16.0084 48.2864,30.0678 10.3177,20.9582 -0.5975,52.6836 -24.3959,70.9077 -8.5647,6.5586 -23.1433,13.643 -34.174,16.6065 -10.318,2.7722 -36.5536,3.6563 -46.5,1.567 z m 622,0 c -15.9058,-3.341 -25.8407,-8.5635 -36.4245,-19.1472 -7.7078,-7.7079 -12.5462,-15.0437 -15.4944,-23.4923 -3.4981,-10.0243 -3.6503,-9.6723 5.8431,-13.5108 4.6334,-1.8734 8.5098,-3.2971 8.6144,-3.1638 0.1045,0.1333 1.1789,3.2531 2.3874,6.9328 4.122,12.5504 15.0109,25.7367 25.6567,31.0697 10.941,5.4809 14.8231,6.2399 31.9173,6.2399 13.9768,0 16.9484,-0.2961 23.5,-2.3419 18.5143,-5.781 32.7601,-17.1639 39.7174,-31.7357 3.5554,-7.4465 3.7826,-8.493 3.7826,-17.4224 0,-8.6626 -0.2616,-9.9724 -2.9681,-14.8588 -6.8634,-12.3914 -19.7336,-18.8739 -49.9455,-25.1568 -33.393,-6.9444 -52.9079,-18.493 -59.2442,-35.0598 -2.7128,-7.0931 -2.4403,-22.5988 0.5581,-31.7522 7.0484,-21.5168 26.341,-37.3441 54.5997,-44.7927 10.8966,-2.8722 37.1864,-2.6171 48,0.4658 18.8255,5.3671 31.4693,15.3495 39.3272,31.0491 2.295,4.5854 4.1665,8.8474 4.1588,9.4712 -0.01,0.6238 -3.546,3.0332 -7.8628,5.3542 l -7.8487,4.22 -3.7389,-7.5652 c -4.8907,-9.8957 -13.9323,-19.2286 -22.5992,-23.3274 -10.1768,-4.8128 -19.2495,-6.3901 -33.3191,-5.7925 -20.148,0.8557 -34.0029,6.6895 -45.2967,19.0728 -6.7016,7.348 -9.5549,14.6235 -9.6759,24.6723 -0.079,6.5319 0.2933,8.1999 2.8825,12.9225 6.8554,12.5042 21.0985,19.2763 59.7207,28.3951 25.8628,6.1062 41.833,15.9761 48.822,30.1729 10.3177,20.9582 -0.5975,52.6836 -24.3959,70.9077 -8.5647,6.5586 -23.1433,13.643 -34.174,16.6065 -10.318,2.7722 -36.5536,3.6563 -46.5,1.567 z m -465.5097,-4.8217 c 0.7152,-3.0452 37.5097,-209.999 37.5097,-210.9765 0,-0.4254 28.8,-0.7735 64,-0.7735 35.2,0 64,0.2029 64,0.4508 0,0.4294 -1.5589,8.5117 -2.5652,13.2992 l -0.4729,2.25 h -54.4619 -54.4619 l -0.5037,2.25 c -0.639,2.8541 -13.5344,75.4542 -13.5344,76.1976 0,0.3038 22.5,0.5524 50,0.5524 34.4753,0 50,0.3283 50,1.0574 0,0.5815 -0.5159,4.1815 -1.1466,8 l -1.1465,6.9426 h -50.2826 -50.2825 l -1.0442,5.25 c -2.1114,10.6155 -14.0976,78.8709 -14.0976,80.2787 0,1.2516 7.632,1.4904 54.75,1.7128 l 54.75,0.2585 -1.3539,7.75 -1.3538,7.75 h -64.4152 -64.4152 z m 190,0 c 0.7317,-3.1153 37.5097,-210.0108 37.5097,-211.0115 0,-0.4446 4.5358,-0.6802 10.0796,-0.5235 l 10.0795,0.285 39.4615,85.5 c 21.7038,47.025 40.998,89.325 42.876,94 1.878,4.675 3.4346,7.8947 3.459,7.1548 0.04,-1.2036 31.2836,-177.6913 32.6455,-184.4048 l 0.5578,-2.75 h 9 9 l -0.5895,2.75 c -0.6816,3.1793 -37.5694,210.2436 -37.5694,210.89 0,0.2365 -4.5132,0.3017 -10.0293,0.145 l -10.0293,-0.285 -39.3882,-85.2153 c -34.2408,-74.0791 -40.9859,-89.0247 -45.0337,-99.7847 -0.4138,-1.1 -0.9156,-1.55 -1.115,-1 -0.1995,0.55 -7.3546,40.375 -15.9002,88.5 -8.5456,48.125 -16.0119,89.8625 -16.5918,92.75 l -1.0543,5.25 h -8.9481 c -8.7695,0 -8.9377,-0.045 -8.4198,-2.25 z m 433,0 c 0.7152,-3.0452 37.5097,-209.999 37.5097,-210.9765 0,-0.4254 28.8,-0.7735 64,-0.7735 35.2,0 64,0.2029 64,0.4508 0,0.4294 -1.5589,8.5117 -2.5652,13.2992 l -0.4729,2.25 h -54.4619 -54.4619 l -0.5037,2.25 c -0.639,2.8541 -13.5344,75.4542 -13.5344,76.1976 0,0.3038 22.5,0.5524 50,0.5524 34.4753,0 50,0.3283 50,1.0574 0,0.5815 -0.5159,4.1815 -1.1466,8 l -1.1465,6.9426 h -50.2826 -50.2825 l -1.0442,5.25 c -2.1114,10.6155 -14.0976,78.8709 -14.0976,80.2787 0,1.2516 7.632,1.4904 54.75,1.7128 l 54.75,0.2585 -1.3539,7.75 -1.3538,7.75 h -64.4152 -64.4152 z m 307.5121,-278 c 0,-0.6875 0.9055,-7.4827 2.0093,-15.1005 12.8638,-88.7742 6.7186,-183.8661 -17.5264,-271.2091 -53.3639,-192.24376 -194.0494,-352.96647 -376.9895,-430.68231 -84.8682,-36.05339 -167.3165,-52.89396 -259.4958,-53.00367 -41.2862,-0.0491 -74.4106,2.56893 -111.4271,8.80692 -231.0453,38.93555 -425.57,198.986 -508.5684,418.43866 -28.6405,75.7269 -42.2787,151.2861 -42.2363,234 0.021,39.8534 1.7465,63.0852 7.8195,105.25 l 0.6841,4.75 h 652.8641 c 521.6234,0 652.8646,-0.2513 652.8665,-1.25 z m -1063.7891,-48.5 c 0.2456,-0.9625 14.3606,-79.9371 31.3666,-175.499 l 30.9201,-173.74916 187.3613,-10e-4 187.3613,-9e-4 -0.5871,3.25 c -3.5994,19.9253 -23.6355,132.89126 -23.6355,133.25946 0,0.2698 -53.3046,0.4906 -118.4547,0.4906 H 1609.599 l -0.6055,3.25 c -0.3331,1.7875 -3.4112,19 -6.8402,38.25 l -6.2346,35 118.2949,0.2541 c 65.0621,0.1397 118.2948,0.4375 118.2948,0.6616 0,0.2241 -5.4,30.6932 -12,67.709 -6.6,37.0158 -12,67.6556 -12,68.0884 0,0.4328 -84.4275,0.7869 -187.6166,0.7869 -178.186,0 -187.5942,-0.088 -187.1701,-1.75 z m 450.2163,-1 c 0.4907,-2.2928 92.0939,-516.36533 95.6251,-536.64294 l 1.1506,-6.60716 h 68.9853 68.9852 l -0.6531,3.75 c -0.3592,2.0625 -16.7318,93.97504 -36.3836,204.25004 l -35.7304,200.50006 118.2956,0.2541 c 65.0626,0.1397 118.2957,0.3955 118.2957,0.5684 0,0.1728 -5.4,30.6464 -12,67.7191 -6.6,37.0727 -12,67.7544 -12,68.1816 0,0.4273 -84.4108,0.7768 -187.5795,0.7768 H 1883.3495 Z M 1506.5084,891.56314 c 0,-0.3211 19.728,-111.5889 23.6378,-133.31954 l 0.5848,-3.25 h 187.5053 c 179.0791,0 187.4845,0.0797 187.0413,1.77472 -0.2553,0.97609 -5.804,31.80109 -12.3304,68.5 l -11.8663,66.72532 h -187.2862 c -103.0075,0 -187.2863,-0.1938 -187.2863,-0.4305 z"
     id="path48"
     inkscape:connector-curvature="0" />
</svg>
